{
.appVersion = "1342";
DisplayStrings = (
"IF/space FUCKS/space SAKE/space FALO/space LONGER/space OR/space SEE/space MM/space INSIDE/space INTERIOR/space IORE/space SEEN/space FURTHER/space THAN/space OTHERS"
);
date = "2020-09-13 10:44:51 +0000";
familyName = "New Font";
fontMaster = (
{
ascender = 800;
capHeight = 700;
descender = -200;
id = "F0C25A7D-16F7-4759-829E-909D069E8C70";
userData = {
GSCornerRadius = 15;
};
visible = 1;
xHeight = 500;
}
);
glyphs = (
{
glyphname = A;
lastChange = "2020-09-14 10:03:24 +0000";
layers = (
{
layerId = "F0C25A7D-16F7-4759-829E-909D069E8C70";
paths = (
{
closed = 1;
nodes = (
"716 190 OFFCURVE",
"682 256 OFFCURVE",
"650 325 CURVE",
"583 467 OFFCURVE",
"532 616 OFFCURVE",
"446 748 CURVE",
"352 893 OFFCURVE",
"208 780 OFFCURVE",
"138 678 CURVE",
"-11 461 OFFCURVE",
"39 143 OFFCURVE",
"39 -125 CURVE",
"39 -232 OFFCURVE",
"211 -232 OFFCURVE",
"211 -125 CURVE",
"211 -93 LINE",
"211 -39 OFFCURVE",
"210 15 OFFCURVE",
"210 71 CURVE",
"218 70 OFFCURVE",
"226 68 OFFCURVE",
"235 68 CURVE",
"272 67 OFFCURVE",
"312 75 OFFCURVE",
"349 81 CURVE",
"415 95 OFFCURVE",
"484 125 OFFCURVE",
"551 130 CURVE",
"552 115 OFFCURVE",
"552 131 OFFCURVE",
"553 131 CURVE",
"559 110 OFFCURVE",
"567 80 OFFCURVE",
"567 18 CURVE",
"567 -99 OFFCURVE",
"532 -214 OFFCURVE",
"649 -187 CURVE",
"727 -176 OFFCURVE",
"743 13 OFFCURVE",
"727 113 CURVE"
);
},
{
closed = 1;
nodes = (
"292 234 OFFCURVE",
"249 234 OFFCURVE",
"208 230 CURVE",
"208 259 OFFCURVE",
"210 287 OFFCURVE",
"210 315 CURVE SMOOTH",
"212 390 OFFCURVE",
"275 784 OFFCURVE",
"370 554 CURVE SMOOTH",
"408 464 OFFCURVE",
"449 372 OFFCURVE",
"490 281 CURVE",
"437 272 OFFCURVE",
"386 256 OFFCURVE",
"334 244 CURVE SMOOTH"
);
}
);
width = 755;
}
);
leftKerningGroup = "2";
unicode = 0041;
},
{
glyphname = B;
lastChange = "2020-09-14 09:34:43 +0000";
layers = (
{
layerId = "F0C25A7D-16F7-4759-829E-909D069E8C70";
paths = (
{
closed = 1;
nodes = (
"636 161 OFFCURVE",
"570 249 OFFCURVE",
"481 314 CURVE",
"535 362 OFFCURVE",
"575 427 OFFCURVE",
"602 504 CURVE",
"643 618 OFFCURVE",
"556 731 OFFCURVE",
"461 777 CURVE",
"367 823 OFFCURVE",
"265 812 OFFCURVE",
"172 777 CURVE",
"74 743 OFFCURVE",
"36 713 OFFCURVE",
"39 583 CURVE",
"44 448 OFFCURVE",
"39 314 OFFCURVE",
"42 180 CURVE",
"46 -12 OFFCURVE",
"157 -184 OFFCURVE",
"353 -204 CURVE",
"492 -218 OFFCURVE",
"735 -173 OFFCURVE",
"673 34 CURVE"
);
},
{
closed = 1;
nodes = (
"518 594 OFFCURVE",
"381 464 OFFCURVE",
"312 402 CURVE",
"282 413 OFFCURVE",
"250 424 OFFCURVE",
"217 433 CURVE",
"216 433 OFFCURVE",
"213 433 OFFCURVE",
"212 433 CURVE",
"208 481 OFFCURVE",
"200 560 OFFCURVE",
"206 603 CURVE",
"248 625 OFFCURVE",
"285 633 OFFCURVE",
"357 621 CURVE"
);
},
{
closed = 1;
nodes = (
"218 95 OFFCURVE",
"210 159 OFFCURVE",
"210 224 CURVE",
"231 219 OFFCURVE",
"255 215 OFFCURVE",
"282 221 CURVE SMOOTH",
"286 221 OFFCURVE",
"288 222 OFFCURVE",
"293 223 CURVE SMOOTH",
"336 204 OFFCURVE",
"379 181 OFFCURVE",
"416 147 CURVE SMOOTH",
"591 -13 OFFCURVE",
"355 -107 OFFCURVE",
"248 50 CURVE SMOOTH"
);
}
);
width = 721;
}
);
unicode = 0042;
},
{
glyphname = C;
lastChange = "2020-09-14 09:23:25 +0000";
layers = (
{
layerId = "F0C25A7D-16F7-4759-829E-909D069E8C70";
paths = (
{
closed = 1;
nodes = (
"313 -112 OFFCURVE",
"207 70 OFFCURVE",
"210 218 CURVE SMOOTH",
"213 277 OFFCURVE",
"237 712 OFFCURVE",
"392 560 CURVE SMOOTH",
"477 476 OFFCURVE",
"620 599 OFFCURVE",
"535 683 CURVE SMOOTH",
"420 796 OFFCURVE",
"260 812 OFFCURVE",
"142 697 CURVE SMOOTH",
"2 562 OFFCURVE",
"12 386 OFFCURVE",
"8 218 CURVE SMOOTH",
"5 68 OFFCURVE",
"66 -88 OFFCURVE",
"214 -179 CURVE SMOOTH",
"361 -269 OFFCURVE",
"563 -94 OFFCURVE",
"627 -2 CURVE SMOOTH",
"696 95 OFFCURVE",
"519 181 OFFCURVE",
"452 85 CURVE SMOOTH"
);
}
);
width = 647;
}
);
unicode = 0043;
},
{
glyphname = D;
lastChange = "2020-09-14 09:26:23 +0000";
layers = (
{
layerId = "F0C25A7D-16F7-4759-829E-909D069E8C70";
paths = (
{
closed = 1;
nodes = (
"567 777 OFFCURVE",
"435 820 OFFCURVE",
"248 820 CURVE",
"198 820 OFFCURVE",
"162 823 OFFCURVE",
"109 788 CURVE",
"79 780 OFFCURVE",
"53 710 OFFCURVE",
"53 675 CURVE",
"57 407 OFFCURVE",
"82 139 OFFCURVE",
"71 -132 CURVE",
"68 -180 OFFCURVE",
"127 -209 OFFCURVE",
"178 -200 CURVE",
"384 -169 OFFCURVE",
"498 6 OFFCURVE",
"576 148 CURVE",
"649 279 OFFCURVE",
"756 523 OFFCURVE",
"652 663 CURVE"
);
},
{
closed = 1;
nodes = (
"435 221 OFFCURVE",
"365 61 OFFCURVE",
"246 -18 CURVE",
"247 72 OFFCURVE",
"228 643 OFFCURVE",
"248 683 CURVE SMOOTH",
"256 699 OFFCURVE",
"368 692 OFFCURVE",
"405 680 CURVE SMOOTH",
"575 620 OFFCURVE",
"510 417 OFFCURVE",
"473 318 CURVE SMOOTH"
);
}
);
width = 738;
}
);
unicode = 0044;
},
{
glyphname = E;
lastChange = "2020-09-14 10:11:13 +0000";
layers = (
{
layerId = "F0C25A7D-16F7-4759-829E-909D069E8C70";
paths = (
{
closed = 1;
nodes = (
"488 -52 OFFCURVE",
"371 -50 OFFCURVE",
"286 -46 CURVE SMOOTH",
"150 -41 OFFCURVE",
"177 -20 OFFCURVE",
"182 89 CURVE SMOOTH",
"184 94 OFFCURVE",
"184 98 OFFCURVE",
"185 104 CURVE",
"202 103 OFFCURVE",
"228 137 OFFCURVE",
"309 154 CURVE SMOOTH",
"351 163 OFFCURVE",
"401 175 OFFCURVE",
"430 212 CURVE SMOOTH",
"457 246 OFFCURVE",
"464 267 OFFCURVE",
"437 298 CURVE SMOOTH",
"392 350 OFFCURVE",
"387 345 OFFCURVE",
"309 315 CURVE SMOOTH",
"296 311 OFFCURVE",
"281 309 OFFCURVE",
"269 307 CURVE SMOOTH",
"256 304 OFFCURVE",
"243 302 OFFCURVE",
"232 300 CURVE SMOOTH",
"225 298 OFFCURVE",
"219 296 OFFCURVE",
"214 292 CURVE",
"219 319 OFFCURVE",
"227 347 OFFCURVE",
"229 376 CURVE SMOOTH",
"238 536 OFFCURVE",
"256 571 OFFCURVE",
"283 619 CURVE SMOOTH",
"300 650 OFFCURVE",
"382 649 OFFCURVE",
"401 649 CURVE SMOOTH",
"487 650 OFFCURVE",
"509 650 OFFCURVE",
"606 648 CURVE SMOOTH",
"707 646 OFFCURVE",
"745 778 OFFCURVE",
"646 800 CURVE SMOOTH",
"530 829 OFFCURVE",
"427 798 OFFCURVE",
"311 790 CURVE SMOOTH",
"233 784 OFFCURVE",
"159 745 OFFCURVE",
"130 660 CURVE SMOOTH",
"100 571 OFFCURVE",
"66 359 OFFCURVE",
"60 324 CURVE SMOOTH",
"36 198 OFFCURVE",
"-4 38 OFFCURVE",
"30 -89 CURVE SMOOTH",
"54 -182 OFFCURVE",
"210 -196 OFFCURVE",
"286 -206 CURVE SMOOTH",
"414 -220 OFFCURVE",
"572 -192 OFFCURVE",
"669 -100 CURVE SMOOTH",
"744 -30 OFFCURVE",
"633 83 OFFCURVE",
"558 11 CURVE SMOOTH"
);
}
);
width = 715;
}
);
unicode = 0045;
},
{
glyphname = F;
lastChange = "2020-09-14 10:13:51 +0000";
layers = (
{
layerId = "F0C25A7D-16F7-4759-829E-909D069E8C70";
paths = (
{
closed = 1;
nodes = (
"357 664 OFFCURVE",
"420 617 OFFCURVE",
"573 679 CURVE SMOOTH",
"637 705 OFFCURVE",
"594 827 OFFCURVE",
"478 800 CURVE SMOOTH",
"394 780 OFFCURVE",
"325 792 OFFCURVE",
"247 766 CURVE SMOOTH",
"153 735 OFFCURVE",
"85 682 OFFCURVE",
"33 598 CURVE SMOOTH",
"-18 517 OFFCURVE",
"22 405 OFFCURVE",
"41 321 CURVE SMOOTH",
"76 172 OFFCURVE",
"111 27 OFFCURVE",
"115 -127 CURVE SMOOTH",
"119 -241 OFFCURVE",
"293 -246 OFFCURVE",
"289 -131 CURVE SMOOTH",
"287 -65 OFFCURVE",
"267 23 OFFCURVE",
"257 89 CURVE",
"262 113 OFFCURVE",
"280 101 OFFCURVE",
"359 136 CURVE SMOOTH",
"396 152 OFFCURVE",
"436 161 OFFCURVE",
"473 179 CURVE SMOOTH",
"519 200 OFFCURVE",
"531 261 OFFCURVE",
"508 300 CURVE SMOOTH",
"481 346 OFFCURVE",
"427 354 OFFCURVE",
"382 334 CURVE SMOOTH",
"380 334 OFFCURVE",
"380 333 OFFCURVE",
"380 333 CURVE SMOOTH",
"378 333 OFFCURVE",
"376 332 OFFCURVE",
"374 331 CURVE SMOOTH",
"363 327 OFFCURVE",
"352 323 OFFCURVE",
"341 319 CURVE SMOOTH",
"307 307 OFFCURVE",
"274 294 OFFCURVE",
"243 280 CURVE SMOOTH",
"236 277 OFFCURVE",
"230 274 OFFCURVE",
"224 270 CURVE",
"193 382 OFFCURVE",
"167 534 OFFCURVE",
"240 584 CURVE SMOOTH"
);
}
);
width = 619;
}
);
unicode = 0046;
},
{
glyphname = G;
lastChange = "2020-09-14 09:28:00 +0000";
layers = (
{
layerId = "F0C25A7D-16F7-4759-829E-909D069E8C70";
paths = (
{
closed = 1;
nodes = (
"666 156 OFFCURVE",
"628 211 OFFCURVE",
"573 227 CURVE SMOOTH",
"521 242 OFFCURVE",
"468 247 OFFCURVE",
"420 247 CURVE SMOOTH",
"312 247 OFFCURVE",
"278 79 OFFCURVE",
"386 79 CURVE SMOOTH",
"434 79 OFFCURVE",
"482 79 OFFCURVE",
"521 65 CURVE SMOOTH",
"528 63 OFFCURVE",
"556 59 OFFCURVE",
"571 30 CURVE",
"587 -54 OFFCURVE",
"486 -25 OFFCURVE",
"385 -29 CURVE SMOOTH",
"248 -34 OFFCURVE",
"147 30 OFFCURVE",
"168 207 CURVE SMOOTH",
"189 384 OFFCURVE",
"385 803 OFFCURVE",
"563 539 CURVE SMOOTH",
"626 446 OFFCURVE",
"769 536 OFFCURVE",
"705 630 CURVE SMOOTH",
"605 779 OFFCURVE",
"390 900 OFFCURVE",
"245 734 CURVE SMOOTH",
"90 559 OFFCURVE",
"-29 304 OFFCURVE",
"14 53 CURVE SMOOTH",
"29 -32 OFFCURVE",
"96 -138 OFFCURVE",
"169 -172 CURVE SMOOTH",
"268 -214 OFFCURVE",
"438 -243 OFFCURVE",
"540 -202 CURVE SMOOTH",
"655 -158 OFFCURVE",
"829 28 OFFCURVE",
"674 150 CURVE SMOOTH"
);
}
);
width = 763;
}
);
unicode = 0047;
},
{
glyphname = H;
lastChange = "2020-09-14 10:06:08 +0000";
layers = (
{
layerId = "F0C25A7D-16F7-4759-829E-909D069E8C70";
paths = (
{
closed = 1;
nodes = (
"608 831 OFFCURVE",
"569 879 OFFCURVE",
"523 873 CURVE SMOOTH",
"482 868 OFFCURVE",
"460 859 OFFCURVE",
"427 830 CURVE SMOOTH",
"391 798 OFFCURVE",
"488 360 OFFCURVE",
"515 204 CURVE",
"427 193 OFFCURVE",
"318 156 OFFCURVE",
"242 195 CURVE SMOOTH",
"236 198 OFFCURVE",
"230 200 OFFCURVE",
"223 202 CURVE",
"222 221 OFFCURVE",
"219 389 OFFCURVE",
"218 408 CURVE SMOOTH",
"206 619 OFFCURVE",
"236 686 OFFCURVE",
"169 760 CURVE SMOOTH",
"106 830 OFFCURVE",
"13 740 OFFCURVE",
"35 625 CURVE SMOOTH",
"39 606 OFFCURVE",
"45 448 OFFCURVE",
"48 429 CURVE SMOOTH",
"53 393 OFFCURVE",
"56 210 OFFCURVE",
"59 175 CURVE SMOOTH",
"66 66 OFFCURVE",
"84 -48 OFFCURVE",
"127 -148 CURVE SMOOTH",
"169 -248 OFFCURVE",
"315 -164 OFFCURVE",
"273 -66 CURVE SMOOTH",
"262 -38 OFFCURVE",
"253 -9 OFFCURVE",
"246 21 CURVE",
"343 5 OFFCURVE",
"439 34 OFFCURVE",
"540 38 CURVE",
"547 -29 OFFCURVE",
"554 -96 OFFCURVE",
"555 -165 CURVE SMOOTH",
"557 -273 OFFCURVE",
"724 -273 OFFCURVE",
"723 -165 CURVE SMOOTH",
"717 155 OFFCURVE",
"608 468 OFFCURVE",
"608 790 CURVE SMOOTH"
);
}
);
width = 768;
}
);
unicode = 0048;
},
{
glyphname = I;
lastChange = "2020-09-14 10:10:17 +0000";
layers = (
{
layerId = "F0C25A7D-16F7-4759-829E-909D069E8C70";
paths = (
{
closed = 1;
nodes = (
"228 433 OFFCURVE",
"211 569 OFFCURVE",
"208 707 CURVE SMOOTH",
"206 805 OFFCURVE",
"55 806 OFFCURVE",
"60 664 CURVE SMOOTH",
"62 578 LINE SMOOTH",
"67 452 OFFCURVE",
"80 388 OFFCURVE",
"89 296 CURVE SMOOTH",
"102 163 OFFCURVE",
"93 43 OFFCURVE",
"84 -87 CURVE SMOOTH",
"77 -185 OFFCURVE",
"239 -184 OFFCURVE",
"239 -87 CURVE SMOOTH",
"239 46 OFFCURVE",
"250 160 OFFCURVE",
"239 296 CURVE SMOOTH"
);
}
);
width = 314;
}
);
unicode = 0049;
},
{
glyphname = J;
lastChange = "2020-09-14 09:30:10 +0000";
layers = (
{
layerId = "F0C25A7D-16F7-4759-829E-909D069E8C70";
paths = (
{
closed = 1;
nodes = (
"402 848 OFFCURVE",
"236 808 OFFCURVE",
"268 712 CURVE SMOOTH",
"333 515 OFFCURVE",
"388 344 OFFCURVE",
"388 137 CURVE SMOOTH",
"388 71 OFFCURVE",
"315 -161 OFFCURVE",
"232 -12 CURVE SMOOTH",
"210 26 OFFCURVE",
"200 50 OFFCURVE",
"158 72 CURVE SMOOTH",
"66 120 OFFCURVE",
"-16 -3 OFFCURVE",
"62 -57 CURVE SMOOTH",
"75 -77 OFFCURVE",
"85 -99 OFFCURVE",
"95 -121 CURVE SMOOTH",
"123 -160 OFFCURVE",
"163 -202 OFFCURVE",
"211 -214 CURVE SMOOTH",
"298 -233 OFFCURVE",
"432 -233 OFFCURVE",
"479 -148 CURVE SMOOTH",
"643 144 OFFCURVE",
"533 460 OFFCURVE",
"435 752 CURVE SMOOTH"
);
}
);
width = 605;
}
);
unicode = 004A;
},
{
glyphname = K;
lastChange = "2020-09-14 09:30:24 +0000";
layers = (
{
layerId = "F0C25A7D-16F7-4759-829E-909D069E8C70";
paths = (
{
closed = 1;
nodes = (
"637 53 OFFCURVE",
"588 106 OFFCURVE",
"521 149 CURVE SMOOTH",
"470 181 OFFCURVE",
"412 202 OFFCURVE",
"356 228 CURVE",
"410 283 OFFCURVE",
"460 340 OFFCURVE",
"505 401 CURVE SMOOTH",
"581 506 OFFCURVE",
"598 612 OFFCURVE",
"599 734 CURVE SMOOTH",
"599 836 OFFCURVE",
"419 836 OFFCURVE",
"419 734 CURVE SMOOTH",
"418 567 OFFCURVE",
"335 447 OFFCURVE",
"222 333 CURVE",
"211 458 OFFCURVE",
"197 583 OFFCURVE",
"192 709 CURVE SMOOTH",
"187 811 OFFCURVE",
"8 813 OFFCURVE",
"12 709 CURVE SMOOTH",
"24 440 OFFCURVE",
"73 173 OFFCURVE",
"53 -97 CURVE SMOOTH",
"45 -200 OFFCURVE",
"225 -199 OFFCURVE",
"232 -97 CURVE SMOOTH",
"237 -29 OFFCURVE",
"238 39 OFFCURVE",
"236 106 CURVE",
"288 77 OFFCURVE",
"343 54 OFFCURVE",
"396 26 CURVE SMOOTH",
"455 -3 OFFCURVE",
"490 -37 OFFCURVE",
"525 -88 CURVE SMOOTH",
"586 -175 OFFCURVE",
"743 -97 OFFCURVE",
"681 -9 CURVE SMOOTH"
);
}
);
width = 723;
}
);
unicode = 004B;
},
{
glyphname = L;
lastChange = "2020-09-14 09:30:47 +0000";
layers = (
{
layerId = "F0C25A7D-16F7-4759-829E-909D069E8C70";
paths = (
{
closed = 1;
nodes = (
"528 40 OFFCURVE",
"478 28 OFFCURVE",
"414 7 CURVE SMOOTH",
"316 -36 OFFCURVE",
"228 -68 OFFCURVE",
"228 51 CURVE SMOOTH",
"228 275 OFFCURVE",
"279 490 OFFCURVE",
"279 714 CURVE SMOOTH",
"291 811 OFFCURVE",
"116 811 OFFCURVE",
"116 714 CURVE SMOOTH",
"105 457 OFFCURVE",
"5 158 OFFCURVE",
"68 -101 CURVE SMOOTH",
"128 -325 OFFCURVE",
"478 -111 OFFCURVE",
"603 -101 CURVE SMOOTH",
"715 -88 OFFCURVE",
"715 51 OFFCURVE",
"603 51 CURVE SMOOTH"
);
}
);
width = 720;
}
);
unicode = 004C;
},
{
glyphname = M;
lastChange = "2020-09-14 10:05:43 +0000";
layers = (
{
layerId = "F0C25A7D-16F7-4759-829E-909D069E8C70";
paths = (
{
closed = 1;
nodes = (
"799 187 OFFCURVE",
"961 548 OFFCURVE",
"685 768 CURVE SMOOTH",
"646 800 OFFCURVE",
"589 820 OFFCURVE",
"549 768 CURVE SMOOTH",
"493 695 OFFCURVE",
"489 590 OFFCURVE",
"483 500 CURVE SMOOTH",
"479 480 OFFCURVE",
"461 392 OFFCURVE",
"446 326 CURVE",
"334 475 OFFCURVE",
"332 730 OFFCURVE",
"156 788 CURVE SMOOTH",
"115 802 OFFCURVE",
"57 771 OFFCURVE",
"48 730 CURVE SMOOTH",
"29 621 OFFCURVE",
"46 506 OFFCURVE",
"55 397 CURVE SMOOTH",
"73 154 OFFCURVE",
"-19 -157 OFFCURVE",
"111 -190 CURVE SMOOTH",
"165 -202 OFFCURVE",
"221 -164 OFFCURVE",
"221 -111 CURVE SMOOTH",
"221 18 OFFCURVE",
"218 222 OFFCURVE",
"209 350 CURVE SMOOTH",
"207 380 OFFCURVE",
"205 455 OFFCURVE",
"205 500 CURVE",
"246 398 OFFCURVE",
"324 219 OFFCURVE",
"395 133 CURVE SMOOTH",
"422 101 OFFCURVE",
"461 97 OFFCURVE",
"502 128 CURVE SMOOTH",
"563 175 OFFCURVE",
"621 416 OFFCURVE",
"636 568 CURVE",
"669 461 OFFCURVE",
"665 275 OFFCURVE",
"669 180 CURVE SMOOTH",
"676 62 OFFCURVE",
"639 -47 OFFCURVE",
"685 -157 CURVE SMOOTH",
"727 -254 OFFCURVE",
"877 -213 OFFCURVE",
"858 -116 CURVE SMOOTH"
);
}
);
width = 910;
}
);
unicode = 004D;
},
{
glyphname = N;
lastChange = "2020-09-14 10:04:53 +0000";
layers = (
{
layerId = "F0C25A7D-16F7-4759-829E-909D069E8C70";
paths = (
{
closed = 1;
nodes = (
"657 834 OFFCURVE",
"521 852 OFFCURVE",
"521 722 CURVE SMOOTH",
"522 581 OFFCURVE",
"530 441 OFFCURVE",
"533 300 CURVE SMOOTH",
"534 190 OFFCURVE",
"528 102 OFFCURVE",
"522 46 CURVE",
"488 70 OFFCURVE",
"462 109 OFFCURVE",
"448 138 CURVE SMOOTH",
"380 263 OFFCURVE",
"318 410 OFFCURVE",
"277 553 CURVE SMOOTH",
"253 635 OFFCURVE",
"234 732 OFFCURVE",
"167 777 CURVE SMOOTH",
"123 805 OFFCURVE",
"59 780 OFFCURVE",
"49 715 CURVE SMOOTH",
"13 479 OFFCURVE",
"61 241 OFFCURVE",
"49 0 CURVE",
"20 -59 OFFCURVE",
"41 -141 OFFCURVE",
"115 -141 CURVE SMOOTH",
"127 -141 LINE SMOOTH",
"174 -141 OFFCURVE",
"183 -111 OFFCURVE",
"189 -57 CURVE SMOOTH",
"199 53 OFFCURVE",
"178 299 OFFCURVE",
"174 410 CURVE",
"183 387 OFFCURVE",
"253 201 OFFCURVE",
"263 178 CURVE SMOOTH",
"312 61 OFFCURVE",
"386 -184 OFFCURVE",
"509 -197 CURVE SMOOTH",
"756 -224 OFFCURVE",
"660 538 OFFCURVE",
"659 704 CURVE SMOOTH"
);
}
);
width = 721;
}
);
unicode = 004E;
},
{
glyphname = O;
lastChange = "2020-09-14 10:08:10 +0000";
layers = (
{
layerId = "F0C25A7D-16F7-4759-829E-909D069E8C70";
paths = (
{
closed = 1;
nodes = (
"222 798 OFFCURVE",
"157 705 OFFCURVE",
"200 658 CURVE",
"195 651 OFFCURVE",
"188 643 OFFCURVE",
"181 636 CURVE",
"95 546 OFFCURVE",
"50 388 OFFCURVE",
"31 268 CURVE",
"-5 35 OFFCURVE",
"129 -136 OFFCURVE",
"352 -169 CURVE",
"602 -206 OFFCURVE",
"724 2 OFFCURVE",
"742 226 CURVE",
"766 512 OFFCURVE",
"518 672 OFFCURVE",
"295 767 CURVE"
);
},
{
closed = 1;
nodes = (
"220 -43 OFFCURVE",
"151 114 OFFCURVE",
"178 285 CURVE SMOOTH",
"196 405 OFFCURVE",
"265 499 OFFCURVE",
"329 595 CURVE",
"416 554 OFFCURVE",
"492 505 OFFCURVE",
"549 412 CURVE SMOOTH",
"632 277 OFFCURVE",
"619 -15 OFFCURVE",
"415 -29 CURVE SMOOTH"
);
}
);
width = 764;
}
);
unicode = 004F;
},
{
glyphname = P;
lastChange = "2020-09-14 09:36:04 +0000";
layers = (
{
layerId = "F0C25A7D-16F7-4759-829E-909D069E8C70";
paths = (
{
closed = 1;
nodes = (
"593 529 OFFCURVE",
"566 635 OFFCURVE",
"478 719 CURVE",
"393 799 OFFCURVE",
"311 803 OFFCURVE",
"191 817 CURVE",
"165 821 OFFCURVE",
"135 815 OFFCURVE",
"113 801 CURVE",
"82 794 OFFCURVE",
"54 772 OFFCURVE",
"55 735 CURVE",
"60 529 OFFCURVE",
"91 327 OFFCURVE",
"128 125 CURVE",
"103 93 OFFCURVE",
"118 48 OFFCURVE",
"146 25 CURVE",
"160 -38 OFFCURVE",
"171 -101 OFFCURVE",
"185 -165 CURVE",
"199 -240 OFFCURVE",
"349 -224 OFFCURVE",
"341 -148 CURVE",
"334 -75 OFFCURVE",
"326 -3 OFFCURVE",
"319 68 CURVE",
"399 93 OFFCURVE",
"480 107 OFFCURVE",
"547 160 CURVE",
"619 219 OFFCURVE",
"594 348 OFFCURVE",
"594 419 CURVE"
);
},
{
closed = 1;
nodes = (
"307 239 OFFCURVE",
"305 256 OFFCURVE",
"305 272 CURVE SMOOTH",
"299 393 OFFCURVE",
"244 539 OFFCURVE",
"243 666 CURVE",
"366 631 OFFCURVE",
"427 556 OFFCURVE",
"435 419 CURVE SMOOTH",
"441 307 OFFCURVE",
"385 262 OFFCURVE",
"307 223 CURVE"
);
}
);
width = 645;
}
);
unicode = 0050;
},
{
glyphname = Q;
lastChange = "2020-09-14 09:37:39 +0000";
layers = (
{
layerId = "F0C25A7D-16F7-4759-829E-909D069E8C70";
paths = (
{
closed = 1;
nodes = (
"878 46 OFFCURVE",
"823 78 OFFCURVE",
"770 114 CURVE",
"826 266 OFFCURVE",
"814 422 OFFCURVE",
"760 546 CURVE",
"676 742 OFFCURVE",
"474 837 OFFCURVE",
"282 798 CURVE",
"270 807 OFFCURVE",
"256 811 OFFCURVE",
"238 811 CURVE",
"178 811 OFFCURVE",
"144 775 OFFCURVE",
"117 730 CURVE",
"97 715 OFFCURVE",
"88 692 OFFCURVE",
"88 671 CURVE",
"84 660 OFFCURVE",
"79 648 OFFCURVE",
"73 639 CURVE",
"10 502 OFFCURVE",
"-7 372 OFFCURVE",
"38 228 CURVE",
"94 50 OFFCURVE",
"359 -264 OFFCURVE",
"578 -146 CURVE",
"619 -124 OFFCURVE",
"653 -93 OFFCURVE",
"682 -52 CURVE",
"750 -97 OFFCURVE",
"823 -127 OFFCURVE",
"891 -139 CURVE",
"985 -157 OFFCURVE",
"1039 19 OFFCURVE",
"944 35 CURVE"
);
},
{
closed = 1;
nodes = (
"147 306 OFFCURVE",
"151 381 OFFCURVE",
"173 458 CURVE SMOOTH",
"186 493 OFFCURVE",
"201 527 OFFCURVE",
"218 560 CURVE SMOOTH",
"222 566 OFFCURVE",
"224 569 OFFCURVE",
"225 575 CURVE",
"360 639 OFFCURVE",
"502 598 OFFCURVE",
"588 474 CURVE SMOOTH",
"642 399 OFFCURVE",
"646 310 OFFCURVE",
"614 206 CURVE",
"590 227 OFFCURVE",
"569 247 OFFCURVE",
"553 267 CURVE SMOOTH",
"501 336 OFFCURVE",
"362 240 OFFCURVE",
"417 171 CURVE SMOOTH",
"450 127 OFFCURVE",
"493 84 OFFCURVE",
"542 45 CURVE",
"442 -121 OFFCURVE",
"224 162 OFFCURVE",
"188 233 CURVE SMOOTH"
);
}
);
width = 1023;
}
);
unicode = 0051;
},
{
glyphname = R;
lastChange = "2020-09-14 10:10:55 +0000";
layers = (
{
layerId = "F0C25A7D-16F7-4759-829E-909D069E8C70";
paths = (
{
closed = 1;
nodes = (
"554 -12 OFFCURVE",
"504 20 OFFCURVE",
"448 56 CURVE SMOOTH",
"437 62 OFFCURVE",
"400 90 OFFCURVE",
"362 103 CURVE",
"409 120 OFFCURVE",
"459 133 OFFCURVE",
"493 150 CURVE SMOOTH",
"573 189 OFFCURVE",
"628 294 OFFCURVE",
"645 379 CURVE SMOOTH",
"685 569 OFFCURVE",
"511 732 OFFCURVE",
"360 797 CURVE SMOOTH",
"210 861 OFFCURVE",
"109 645 OFFCURVE",
"76 530 CURVE SMOOTH",
"46 431 OFFCURVE",
"38 333 OFFCURVE",
"53 230 CURVE SMOOTH",
"63 158 OFFCURVE",
"78 99 OFFCURVE",
"96 29 CURVE SMOOTH",
"108 -14 OFFCURVE",
"140 -165 OFFCURVE",
"140 -165 CURVE",
"171 -253 OFFCURVE",
"290 -218 OFFCURVE",
"280 -151 CURVE SMOOTH",
"278 -129 OFFCURVE",
"276 -41 OFFCURVE",
"270 -20 CURVE",
"365 -56 OFFCURVE",
"445 -133 OFFCURVE",
"534 -185 CURVE SMOOTH",
"619 -237 OFFCURVE",
"697 -98 OFFCURVE",
"612 -48 CURVE SMOOTH"
);
},
{
closed = 1;
nodes = (
"308 675 OFFCURVE",
"353 628 OFFCURVE",
"412 579 CURVE SMOOTH",
"504 506 OFFCURVE",
"521 366 OFFCURVE",
"418 288 CURVE SMOOTH",
"360 244 OFFCURVE",
"278 209 OFFCURVE",
"211 176 CURVE",
"191 309 OFFCURVE",
"206 456 OFFCURVE",
"267 587 CURVE SMOOTH"
);
}
);
width = 689;
}
);
unicode = 0052;
},
{
glyphname = S;
lastChange = "2020-09-14 09:52:03 +0000";
layers = (
{
layerId = "F0C25A7D-16F7-4759-829E-909D069E8C70";
paths = (
{
closed = 1;
nodes = (
"301 411 OFFCURVE",
"120 523 OFFCURVE",
"274 619 CURVE SMOOTH",
"342 661 OFFCURVE",
"438 619 OFFCURVE",
"449 546 CURVE SMOOTH",
"463 460 OFFCURVE",
"618 495 OFFCURVE",
"605 581 CURVE SMOOTH",
"568 821 OFFCURVE",
"163 859 OFFCURVE",
"76 632 CURVE SMOOTH",
"18 484 OFFCURVE",
"63 363 OFFCURVE",
"182 267 CURVE SMOOTH",
"290 180 OFFCURVE",
"380 164 OFFCURVE",
"422 55 CURVE SMOOTH",
"465 -56 OFFCURVE",
"379 -53 OFFCURVE",
"298 -31 CURVE SMOOTH",
"274 -25 OFFCURVE",
"159 11 OFFCURVE",
"145 33 CURVE SMOOTH",
"100 103 OFFCURVE",
"1 8 OFFCURVE",
"46 -68 CURVE SMOOTH",
"96 -155 OFFCURVE",
"281 -200 OFFCURVE",
"373 -200 CURVE SMOOTH",
"507 -197 OFFCURVE",
"621 -138 OFFCURVE",
"638 0 CURVE SMOOTH",
"656 144 OFFCURVE",
"512 282 OFFCURVE",
"404 349 CURVE SMOOTH"
);
}
);
width = 686;
}
);
unicode = 0053;
},
{
glyphname = T;
lastChange = "2020-09-14 10:11:26 +0000";
layers = (
{
layerId = "F0C25A7D-16F7-4759-829E-909D069E8C70";
paths = (
{
closed = 1;
nodes = (
"583 849 OFFCURVE",
"494 799 OFFCURVE",
"382 796 CURVE SMOOTH",
"303 796 OFFCURVE",
"228 772 OFFCURVE",
"148 786 CURVE SMOOTH",
"107 793 OFFCURVE",
"75 795 OFFCURVE",
"35 783 CURVE SMOOTH",
"-62 754 OFFCURVE",
"-21 610 OFFCURVE",
"78 600 CURVE SMOOTH",
"125 595 OFFCURVE",
"173 591 OFFCURVE",
"211 590 CURVE SMOOTH",
"239 589 OFFCURVE",
"268 592 OFFCURVE",
"296 595 CURVE",
"201 373 OFFCURVE",
"278 104 OFFCURVE",
"266 -129 CURVE SMOOTH",
"262 -235 OFFCURVE",
"417 -229 OFFCURVE",
"422 -123 CURVE SMOOTH",
"432 84 OFFCURVE",
"345 363 OFFCURVE",
"453 560 CURVE SMOOTH",
"462 578 OFFCURVE",
"465 596 OFFCURVE",
"462 612 CURVE",
"487 614 OFFCURVE",
"511 616 OFFCURVE",
"538 621 CURVE SMOOTH",
"592 631 OFFCURVE",
"640 665 OFFCURVE",
"694 671 CURVE SMOOTH",
"795 683 OFFCURVE",
"791 872 OFFCURVE",
"692 862 CURVE SMOOTH"
);
}
);
width = 763;
}
);
unicode = 0054;
},
{
glyphname = U;
lastChange = "2020-09-14 09:53:24 +0000";
layers = (
{
layerId = "F0C25A7D-16F7-4759-829E-909D069E8C70";
paths = (
{
closed = 1;
nodes = (
"763 3 OFFCURVE",
"744 81 OFFCURVE",
"736 104 CURVE SMOOTH",
"708 175 OFFCURVE",
"685 247 OFFCURVE",
"666 321 CURVE SMOOTH",
"658 353 OFFCURVE",
"643 402 OFFCURVE",
"629 454 CURVE",
"635 558 OFFCURVE",
"630 660 OFFCURVE",
"620 745 CURVE SMOOTH",
"610 820 OFFCURVE",
"506 829 OFFCURVE",
"477 766 CURVE SMOOTH",
"436 678 OFFCURVE",
"448 553 OFFCURVE",
"472 440 CURVE",
"461 321 OFFCURVE",
"434 201 OFFCURVE",
"389 108 CURVE SMOOTH",
"342 11 OFFCURVE",
"258 77 OFFCURVE",
"234 155 CURVE",
"218 210 OFFCURVE",
"210 268 OFFCURVE",
"194 323 CURVE SMOOTH",
"163 437 OFFCURVE",
"175 568 OFFCURVE",
"176 685 CURVE SMOOTH",
"177 796 OFFCURVE",
"22 796 OFFCURVE",
"22 685 CURVE SMOOTH",
"20 527 OFFCURVE",
"33 -280 OFFCURVE",
"341 -143 CURVE SMOOTH",
"448 -96 OFFCURVE",
"518 -1 OFFCURVE",
"563 113 CURVE",
"593 7 OFFCURVE",
"630 -99 OFFCURVE",
"706 -160 CURVE SMOOTH",
"786 -225 OFFCURVE",
"862 -77 OFFCURVE",
"782 -13 CURVE SMOOTH"
);
}
);
width = 843;
}
);
unicode = 0055;
},
{
glyphname = V;
lastChange = "2020-09-14 10:08:47 +0000";
layers = (
{
layerId = "F0C25A7D-16F7-4759-829E-909D069E8C70";
paths = (
{
closed = 1;
nodes = (
"807 802 OFFCURVE",
"687 854 OFFCURVE",
"655 767 CURVE SMOOTH",
"575 552 OFFCURVE",
"537 260 OFFCURVE",
"474 39 CURVE",
"459 74 OFFCURVE",
"401 239 OFFCURVE",
"384 273 CURVE SMOOTH",
"332 377 OFFCURVE",
"301 496 OFFCURVE",
"250 599 CURVE SMOOTH",
"214 668 OFFCURVE",
"212 724 OFFCURVE",
"133 767 CURVE SMOOTH",
"53 811 OFFCURVE",
"-11 696 OFFCURVE",
"27 626 CURVE SMOOTH",
"32 619 OFFCURVE",
"37 610 OFFCURVE",
"42 602 CURVE SMOOTH",
"37 614 OFFCURVE",
"165 313 OFFCURVE",
"199 239 CURVE SMOOTH",
"254 120 OFFCURVE",
"287 51 OFFCURVE",
"355 -113 CURVE SMOOTH",
"405 -234 OFFCURVE",
"524 -260 OFFCURVE",
"589 -151 CURVE SMOOTH",
"731 87 OFFCURVE",
"715 386 OFFCURVE",
"797 644 CURVE",
"808 656 OFFCURVE",
"807 672 OFFCURVE",
"807 691 CURVE SMOOTH",
"807 705 LINE SMOOTH"
);
}
);
width = 828;
}
);
leftKerningGroup = "2";
unicode = 0056;
},
{
glyphname = W;
lastChange = "2020-09-14 09:22:36 +0000";
layers = (
{
layerId = "F0C25A7D-16F7-4759-829E-909D069E8C70";
paths = (
{
closed = 1;
nodes = (
"834 392 OFFCURVE",
"835 606 OFFCURVE",
"768 745 CURVE SMOOTH",
"719 845 OFFCURVE",
"584 756 OFFCURVE",
"633 653 CURVE SMOOTH",
"676 561 OFFCURVE",
"670 396 OFFCURVE",
"673 295 CURVE SMOOTH",
"678 180 OFFCURVE",
"670 63 OFFCURVE",
"669 -57 CURVE SMOOTH",
"670 44 OFFCURVE",
"541 141 OFFCURVE",
"496 221 CURVE SMOOTH",
"467 278 OFFCURVE",
"456 316 OFFCURVE",
"407 352 CURVE SMOOTH",
"373 379 OFFCURVE",
"319 360 OFFCURVE",
"300 319 CURVE SMOOTH",
"276 266 OFFCURVE",
"278 219 OFFCURVE",
"268 160 CURVE SMOOTH",
"265 133 OFFCURVE",
"263 103 OFFCURVE",
"259 76 CURVE",
"234 171 OFFCURVE",
"225 262 OFFCURVE",
"222 364 CURVE SMOOTH",
"220 440 OFFCURVE",
"198 585 OFFCURVE",
"225 653 CURVE SMOOTH",
"237 691 OFFCURVE",
"238 732 OFFCURVE",
"209 762 CURVE SMOOTH",
"207 769 OFFCURVE",
"204 771 OFFCURVE",
"198 777 CURVE SMOOTH",
"135 851 OFFCURVE",
"42 756 OFFCURVE",
"70 676 CURVE",
"53 576 OFFCURVE",
"65 464 OFFCURVE",
"65 364 CURVE SMOOTH",
"66 213 OFFCURVE",
"80 35 OFFCURVE",
"146 -100 CURVE SMOOTH",
"186 -180 OFFCURVE",
"297 -198 OFFCURVE",
"353 -133 CURVE SMOOTH",
"396 -83 OFFCURVE",
"404 -15 OFFCURVE",
"410 50 CURVE",
"412 48 OFFCURVE",
"413 44 OFFCURVE",
"414 42 CURVE SMOOTH",
"452 -21 OFFCURVE",
"504 -74 OFFCURVE",
"551 -124 CURVE SMOOTH",
"612 -188 OFFCURVE",
"714 -278 OFFCURVE",
"791 -188 CURVE SMOOTH",
"865 -100 OFFCURVE",
"830 128 OFFCURVE",
"832 236 CURVE SMOOTH"
);
}
);
width = 897;
}
);
unicode = 0057;
},
{
glyphname = X;
lastChange = "2020-09-14 09:54:13 +0000";
layers = (
{
layerId = "F0C25A7D-16F7-4759-829E-909D069E8C70";
paths = (
{
closed = 1;
nodes = (
"654 152 OFFCURVE",
"599 225 OFFCURVE",
"514 340 CURVE",
"578 455 OFFCURVE",
"678 601 OFFCURVE",
"689 738 CURVE SMOOTH",
"700 855 OFFCURVE",
"514 854 OFFCURVE",
"505 738 CURVE SMOOTH",
"500 675 OFFCURVE",
"440 554 OFFCURVE",
"403 493 CURVE",
"339 581 OFFCURVE",
"275 672 OFFCURVE",
"217 765 CURVE SMOOTH",
"154 865 OFFCURVE",
"-9 776 OFFCURVE",
"53 676 CURVE SMOOTH",
"128 555 OFFCURVE",
"214 438 OFFCURVE",
"299 323 CURVE",
"239 203 OFFCURVE",
"194 65 OFFCURVE",
"167 -66 CURVE SMOOTH",
"144 -180 OFFCURVE",
"322 -227 OFFCURVE",
"346 -111 CURVE SMOOTH",
"363 -22 OFFCURVE",
"392 65 OFFCURVE",
"426 150 CURVE",
"499 50 OFFCURVE",
"569 -50 OFFCURVE",
"631 -154 CURVE SMOOTH",
"678 -232 OFFCURVE",
"815 -202 OFFCURVE",
"815 -109 CURVE SMOOTH",
"815 -62 OFFCURVE",
"762 -20 OFFCURVE",
"729 32 CURVE"
);
}
);
width = 830;
}
);
unicode = 0058;
},
{
glyphname = Y;
lastChange = "2020-09-14 09:54:39 +0000";
layers = (
{
layerId = "F0C25A7D-16F7-4759-829E-909D069E8C70";
paths = (
{
closed = 1;
nodes = (
"502 853 OFFCURVE",
"513 750 OFFCURVE",
"513 680 CURVE SMOOTH",
"513 652 OFFCURVE",
"501 585 OFFCURVE",
"490 572 CURVE SMOOTH",
"478 504 OFFCURVE",
"439 432 OFFCURVE",
"416 364 CURVE",
"416 364 OFFCURVE",
"416 364 OFFCURVE",
"368 409 CURVE SMOOTH",
"313 460 OFFCURVE",
"294 477 OFFCURVE",
"259 531 CURVE SMOOTH",
"201 613 OFFCURVE",
"144 680 OFFCURVE",
"63 640 CURVE SMOOTH",
"-18 599 OFFCURVE",
"20 564 OFFCURVE",
"72 496 CURVE",
"96 478 OFFCURVE",
"132 423 OFFCURVE",
"144 409 CURVE SMOOTH",
"167 368 OFFCURVE",
"221 346 OFFCURVE",
"244 305 CURVE SMOOTH",
"279 264 OFFCURVE",
"294 246 OFFCURVE",
"340 206 CURVE",
"294 124 OFFCURVE",
"259 57 OFFCURVE",
"213 -11 CURVE SMOOTH",
"155 -120 OFFCURVE",
"294 -201 OFFCURVE",
"351 -106 CURVE SMOOTH",
"398 -11 OFFCURVE",
"467 84 OFFCURVE",
"501 165 CURVE SMOOTH",
"536 246 OFFCURVE",
"571 328 OFFCURVE",
"605 409 CURVE SMOOTH",
"640 504 OFFCURVE",
"744 735 OFFCURVE",
"628 789 CURVE SMOOTH"
);
}
);
width = 696;
}
);
unicode = 0059;
},
{
glyphname = Z;
lastChange = "2020-09-14 09:55:34 +0000";
layers = (
{
layerId = "F0C25A7D-16F7-4759-829E-909D069E8C70";
paths = (
{
closed = 1;
nodes = (
"603 65 OFFCURVE",
"486 36 OFFCURVE",
"367 9 CURVE SMOOTH",
"348 6 OFFCURVE",
"328 2 OFFCURVE",
"308 -3 CURVE SMOOTH",
"292 -1 OFFCURVE",
"278 0 OFFCURVE",
"265 0 CURVE",
"295 35 OFFCURVE",
"327 67 OFFCURVE",
"356 103 CURVE SMOOTH",
"432 196 OFFCURVE",
"501 297 OFFCURVE",
"561 401 CURVE SMOOTH",
"606 478 OFFCURVE",
"681 626 OFFCURVE",
"599 705 CURVE SMOOTH",
"554 748 OFFCURVE",
"478 760 OFFCURVE",
"419 760 CURVE",
"329 769 OFFCURVE",
"259 786 OFFCURVE",
"179 791 CURVE SMOOTH",
"64 800 OFFCURVE",
"65 622 OFFCURVE",
"179 613 CURVE SMOOTH",
"268 607 OFFCURVE",
"352 588 OFFCURVE",
"443 564 CURVE SMOOTH",
"444 564 OFFCURVE",
"445 564 OFFCURVE",
"446 564 CURVE",
"433 527 OFFCURVE",
"410 493 OFFCURVE",
"391 461 CURVE SMOOTH",
"329 357 OFFCURVE",
"256 252 OFFCURVE",
"174 162 CURVE SMOOTH",
"103 84 OFFCURVE",
"-52 -83 OFFCURVE",
"102 -171 CURVE SMOOTH",
"267 -266 OFFCURVE",
"550 -116 OFFCURVE",
"724 -107 CURVE SMOOTH",
"837 -102 OFFCURVE",
"838 76 OFFCURVE",
"724 71 CURVE SMOOTH"
);
}
);
width = 897;
}
);
unicode = 005A;
},
